# xmcd
# Track frame offsets:
# 150
# 18783
# 31988
# 49248
# 61315
# 76408
# 87695
# 100594
# 117696
#
# Disc length: 1752 seconds
# Revision: 0
# Processed by: cddbd v1.5.2PL0 Copyright (c) Steve Scherf et al.
# Submitted via: VisiTrax 2.11.2.271 - For more info visit www.synapsa.com
#
DISCID=6f06d609
DTITLE=McCulloch, Stephen - Good Things Take Time
DYEAR=2012
DGENRE=Country
TTITLE0=Something Sacred
TTITLE1=Holding You
TTITLE2=Angel
TTITLE3=Harvest
TTITLE4=Good Things Take Time
TTITLE5=Hit the Road
TTITLE6=Restless Soul
TTITLE7=Jessie Take the Wheel
TTITLE8=Gypsy Dreamers
EXTD=
EXTT0=
EXTT1=
EXTT2=
EXTT3=
EXTT4=
EXTT5=
EXTT6=
EXTT7=
EXTT8=
PLAYORDER=
